<svg xmlns="http://www.w3.org/2000/svg" viewBox="0 0 500 500"><g id="freepik--Pizza--inject-47"><path d="M348.76,328a4.81,4.81,0,0,1-4.37,0,1.33,1.33,0,0,1,0-2.52,4.81,4.81,0,0,1,4.37,0A1.33,1.33,0,0,1,348.76,328Z" style="fill:#407BFF"></path><path d="M348.76,328a4.81,4.81,0,0,1-4.37,0,1.33,1.33,0,0,1,0-2.52,4.81,4.81,0,0,1,4.37,0A1.33,1.33,0,0,1,348.76,328Z" style="fill:#fff;opacity:0.4"></path><ellipse cx="325.69" cy="290.5" rx="114.77" ry="66.26" transform="translate(-4.07 4.63) rotate(-0.81)" style="fill:#407BFF"></ellipse><ellipse cx="325.69" cy="290.5" rx="114.77" ry="66.26" transform="translate(-4.07 4.63) rotate(-0.81)" style="fill:#fff;opacity:0.7000000000000001"></ellipse><ellipse cx="325.62" cy="285.11" rx="100.79" ry="53.4" transform="translate(-3.99 4.62) rotate(-0.81)" style="fill:#407BFF"></ellipse><ellipse cx="325.62" cy="285.11" rx="100.79" ry="53.4" transform="translate(-3.99 4.62) rotate(-0.81)" style="fill:#fff;opacity:0.4"></ellipse><ellipse cx="325.61" cy="284.48" rx="95.49" ry="50.59" transform="translate(-3.98 4.62) rotate(-0.81)" style="fill:#407BFF"></ellipse><ellipse cx="325.61" cy="284.48" rx="95.49" ry="50.59" transform="translate(-3.98 4.62) rotate(-0.81)" style="fill:#fff;opacity:0.7000000000000001"></ellipse><path d="M304.71,262.46c-7.52,4.34-19.71,4.34-27.23,0s-7.52-11.38,0-15.72,19.71-4.34,27.23,0S312.23,258.12,304.71,262.46Z" style="fill:#407BFF"></path><path d="M304.71,262.46c-7.52,4.34-19.71,4.34-27.23,0s-7.52-11.38,0-15.72,19.71-4.34,27.23,0S312.23,258.12,304.71,262.46Z" style="fill:#fff;opacity:0.2"></path><ellipse cx="291.09" cy="252.51" rx="19.26" ry="11.12" style="fill:#407BFF"></ellipse><ellipse cx="291.09" cy="252.51" rx="19.26" ry="11.12" style="fill:#fff;opacity:0.4"></ellipse><ellipse cx="281.87" cy="247.26" rx="2.04" ry="1.18" style="fill:#407BFF"></ellipse><ellipse cx="281.87" cy="247.26" rx="2.04" ry="1.18" style="fill:#fff;opacity:0.7000000000000001"></ellipse><path d="M294.19,258.38a3.16,3.16,0,0,1-2.87,0,.87.87,0,0,1,0-1.66,3.16,3.16,0,0,1,2.87,0A.87.87,0,0,1,294.19,258.38Z" style="fill:#407BFF"></path><path d="M294.19,258.38a3.16,3.16,0,0,1-2.87,0,.87.87,0,0,1,0-1.66,3.16,3.16,0,0,1,2.87,0A.87.87,0,0,1,294.19,258.38Z" style="fill:#fff;opacity:0.7000000000000001"></path><path d="M278.28,251.66a1.84,1.84,0,0,1-1.68,0,.51.51,0,0,1,0-1,1.84,1.84,0,0,1,1.68,0A.51.51,0,0,1,278.28,251.66Z" style="fill:#407BFF"></path><path d="M278.28,251.66a1.84,1.84,0,0,1-1.68,0,.51.51,0,0,1,0-1,1.84,1.84,0,0,1,1.68,0A.51.51,0,0,1,278.28,251.66Z" style="fill:#fff;opacity:0.7000000000000001"></path><path d="M291,254.29a1.91,1.91,0,0,1-1.68,0,.51.51,0,0,1,0-1,1.84,1.84,0,0,1,1.68,0A.51.51,0,0,1,291,254.29Z" style="fill:#407BFF"></path><path d="M291,254.29a1.91,1.91,0,0,1-1.68,0,.51.51,0,0,1,0-1,1.84,1.84,0,0,1,1.68,0A.51.51,0,0,1,291,254.29Z" style="fill:#fff;opacity:0.7000000000000001"></path><path d="M295,250.57a1.82,1.82,0,0,1-1.67,0c-.47-.27-.47-.7,0-1a1.82,1.82,0,0,1,1.67,0C295.44,249.87,295.44,250.3,295,250.57Z" style="fill:#407BFF"></path><path d="M295,250.57a1.82,1.82,0,0,1-1.67,0c-.47-.27-.47-.7,0-1a1.82,1.82,0,0,1,1.67,0C295.44,249.87,295.44,250.3,295,250.57Z" style="fill:#fff;opacity:0.7000000000000001"></path><path d="M284.74,257.39a1.84,1.84,0,0,1-1.68,0,.51.51,0,0,1,0-1,1.91,1.91,0,0,1,1.68,0C285.21,256.69,285.21,257.13,284.74,257.39Z" style="fill:#407BFF"></path><path d="M284.74,257.39a1.84,1.84,0,0,1-1.68,0,.51.51,0,0,1,0-1,1.91,1.91,0,0,1,1.68,0C285.21,256.69,285.21,257.13,284.74,257.39Z" style="fill:#fff;opacity:0.7000000000000001"></path><ellipse cx="298.54" cy="258.72" rx="1.19" ry="0.69" style="fill:#407BFF"></ellipse><ellipse cx="298.54" cy="258.72" rx="1.19" ry="0.69" style="fill:#fff;opacity:0.7000000000000001"></ellipse><path d="M303.27,248.23a1.91,1.91,0,0,1-1.68,0,.51.51,0,0,1,0-1,1.84,1.84,0,0,1,1.68,0C303.74,247.53,303.74,248,303.27,248.23Z" style="fill:#407BFF"></path><path d="M303.27,248.23a1.91,1.91,0,0,1-1.68,0,.51.51,0,0,1,0-1,1.84,1.84,0,0,1,1.68,0C303.74,247.53,303.74,248,303.27,248.23Z" style="fill:#fff;opacity:0.7000000000000001"></path><ellipse cx="360.12" cy="255.65" rx="19.26" ry="11.12" style="fill:#407BFF"></ellipse><ellipse cx="360.12" cy="255.65" rx="19.26" ry="11.12" style="fill:#fff;opacity:0.2"></ellipse><ellipse cx="360.12" cy="253.55" rx="19.26" ry="11.12" style="fill:#407BFF"></ellipse><ellipse cx="360.12" cy="253.55" rx="19.26" ry="11.12" style="fill:#fff;opacity:0.4"></ellipse><path d="M352.33,249.14a3.24,3.24,0,0,1-2.88,0,.88.88,0,0,1,0-1.67,3.24,3.24,0,0,1,2.88,0A.88.88,0,0,1,352.33,249.14Z" style="fill:#407BFF"></path><path d="M352.33,249.14a3.24,3.24,0,0,1-2.88,0,.88.88,0,0,1,0-1.67,3.24,3.24,0,0,1,2.88,0A.88.88,0,0,1,352.33,249.14Z" style="fill:#fff;opacity:0.7000000000000001"></path><path d="M363.22,259.43a3.18,3.18,0,0,1-2.88,0,.88.88,0,0,1,0-1.67,3.24,3.24,0,0,1,2.88,0A.88.88,0,0,1,363.22,259.43Z" style="fill:#407BFF"></path><path d="M363.22,259.43a3.18,3.18,0,0,1-2.88,0,.88.88,0,0,1,0-1.67,3.24,3.24,0,0,1,2.88,0A.88.88,0,0,1,363.22,259.43Z" style="fill:#fff;opacity:0.7000000000000001"></path><path d="M347.3,252.71a1.91,1.91,0,0,1-1.68,0,.51.51,0,0,1,0-1,1.84,1.84,0,0,1,1.68,0C347.77,252,347.77,252.44,347.3,252.71Z" style="fill:#407BFF"></path><path d="M347.3,252.71a1.91,1.91,0,0,1-1.68,0,.51.51,0,0,1,0-1,1.84,1.84,0,0,1,1.68,0C347.77,252,347.77,252.44,347.3,252.71Z" style="fill:#fff;opacity:0.7000000000000001"></path><path d="M360.06,255.33a1.82,1.82,0,0,1-1.67,0c-.47-.26-.47-.7,0-1a1.89,1.89,0,0,1,1.67,0C360.53,254.63,360.53,255.07,360.06,255.33Z" style="fill:#407BFF"></path><path d="M360.06,255.33a1.82,1.82,0,0,1-1.67,0c-.47-.26-.47-.7,0-1a1.89,1.89,0,0,1,1.67,0C360.53,254.63,360.53,255.07,360.06,255.33Z" style="fill:#fff;opacity:0.7000000000000001"></path><path d="M364,251.62a1.91,1.91,0,0,1-1.68,0,.51.51,0,0,1,0-1,1.84,1.84,0,0,1,1.68,0A.51.51,0,0,1,364,251.62Z" style="fill:#407BFF"></path><path d="M364,251.62a1.91,1.91,0,0,1-1.68,0,.51.51,0,0,1,0-1,1.84,1.84,0,0,1,1.68,0A.51.51,0,0,1,364,251.62Z" style="fill:#fff;opacity:0.7000000000000001"></path><path d="M353.77,258.44a1.84,1.84,0,0,1-1.68,0,.51.51,0,0,1,0-1,1.84,1.84,0,0,1,1.68,0A.51.51,0,0,1,353.77,258.44Z" style="fill:#407BFF"></path><path d="M353.77,258.44a1.84,1.84,0,0,1-1.68,0,.51.51,0,0,1,0-1,1.84,1.84,0,0,1,1.68,0A.51.51,0,0,1,353.77,258.44Z" style="fill:#fff;opacity:0.7000000000000001"></path><path d="M368.4,260.26a1.91,1.91,0,0,1-1.68,0,.51.51,0,0,1,0-1,1.84,1.84,0,0,1,1.68,0C368.87,259.55,368.87,260,368.4,260.26Z" style="fill:#407BFF"></path><path d="M368.4,260.26a1.91,1.91,0,0,1-1.68,0,.51.51,0,0,1,0-1,1.84,1.84,0,0,1,1.68,0C368.87,259.55,368.87,260,368.4,260.26Z" style="fill:#fff;opacity:0.7000000000000001"></path><path d="M372.3,249.27a1.84,1.84,0,0,1-1.68,0,.51.51,0,0,1,0-1,1.91,1.91,0,0,1,1.68,0A.51.51,0,0,1,372.3,249.27Z" style="fill:#407BFF"></path><path d="M372.3,249.27a1.84,1.84,0,0,1-1.68,0,.51.51,0,0,1,0-1,1.91,1.91,0,0,1,1.68,0A.51.51,0,0,1,372.3,249.27Z" style="fill:#fff;opacity:0.7000000000000001"></path><ellipse cx="325.61" cy="280.63" rx="19.26" ry="11.12" style="fill:#407BFF"></ellipse><ellipse cx="325.61" cy="280.63" rx="19.26" ry="11.12" style="fill:#fff;opacity:0.2"></ellipse><ellipse cx="325.61" cy="278.53" rx="19.26" ry="11.12" style="fill:#407BFF"></ellipse><ellipse cx="325.61" cy="278.53" rx="19.26" ry="11.12" style="fill:#fff;opacity:0.4"></ellipse><path d="M317.82,274.12a3.18,3.18,0,0,1-2.88,0,.88.88,0,0,1,0-1.66,3.18,3.18,0,0,1,2.88,0A.88.88,0,0,1,317.82,274.12Z" style="fill:#407BFF"></path><path d="M317.82,274.12a3.18,3.18,0,0,1-2.88,0,.88.88,0,0,1,0-1.66,3.18,3.18,0,0,1,2.88,0A.88.88,0,0,1,317.82,274.12Z" style="fill:#fff;opacity:0.7000000000000001"></path><path d="M328.71,284.41a3.18,3.18,0,0,1-2.88,0,.87.87,0,0,1,0-1.66,3.18,3.18,0,0,1,2.88,0A.88.88,0,0,1,328.71,284.41Z" style="fill:#407BFF"></path><path d="M328.71,284.41a3.18,3.18,0,0,1-2.88,0,.87.87,0,0,1,0-1.66,3.18,3.18,0,0,1,2.88,0A.88.88,0,0,1,328.71,284.41Z" style="fill:#fff;opacity:0.7000000000000001"></path><path d="M312.79,277.69a1.84,1.84,0,0,1-1.68,0,.51.51,0,0,1,0-1,1.84,1.84,0,0,1,1.68,0A.51.51,0,0,1,312.79,277.69Z" style="fill:#407BFF"></path><path d="M312.79,277.69a1.84,1.84,0,0,1-1.68,0,.51.51,0,0,1,0-1,1.84,1.84,0,0,1,1.68,0A.51.51,0,0,1,312.79,277.69Z" style="fill:#fff;opacity:0.7000000000000001"></path><path d="M325.55,280.31a1.84,1.84,0,0,1-1.68,0,.51.51,0,0,1,0-1,1.84,1.84,0,0,1,1.68,0A.51.51,0,0,1,325.55,280.31Z" style="fill:#407BFF"></path><path d="M325.55,280.31a1.84,1.84,0,0,1-1.68,0,.51.51,0,0,1,0-1,1.84,1.84,0,0,1,1.68,0A.51.51,0,0,1,325.55,280.31Z" style="fill:#fff;opacity:0.7000000000000001"></path><path d="M329.49,276.6a1.84,1.84,0,0,1-1.68,0c-.47-.27-.47-.7,0-1a1.84,1.84,0,0,1,1.68,0A.51.51,0,0,1,329.49,276.6Z" style="fill:#407BFF"></path><path d="M329.49,276.6a1.84,1.84,0,0,1-1.68,0c-.47-.27-.47-.7,0-1a1.84,1.84,0,0,1,1.68,0A.51.51,0,0,1,329.49,276.6Z" style="fill:#fff;opacity:0.7000000000000001"></path><path d="M319.26,283.42a1.84,1.84,0,0,1-1.68,0c-.47-.27-.47-.7,0-1a1.84,1.84,0,0,1,1.68,0A.51.51,0,0,1,319.26,283.42Z" style="fill:#407BFF"></path><path d="M319.26,283.42a1.84,1.84,0,0,1-1.68,0c-.47-.27-.47-.7,0-1a1.84,1.84,0,0,1,1.68,0A.51.51,0,0,1,319.26,283.42Z" style="fill:#fff;opacity:0.7000000000000001"></path><path d="M333.89,285.24a1.91,1.91,0,0,1-1.68,0,.51.51,0,0,1,0-1,1.84,1.84,0,0,1,1.68,0A.51.51,0,0,1,333.89,285.24Z" style="fill:#407BFF"></path><path d="M333.89,285.24a1.91,1.91,0,0,1-1.68,0,.51.51,0,0,1,0-1,1.84,1.84,0,0,1,1.68,0A.51.51,0,0,1,333.89,285.24Z" style="fill:#fff;opacity:0.7000000000000001"></path><path d="M337.78,274.25a1.82,1.82,0,0,1-1.67,0,.5.5,0,0,1,0-1,1.82,1.82,0,0,1,1.67,0A.5.5,0,0,1,337.78,274.25Z" style="fill:#407BFF"></path><path d="M337.78,274.25a1.82,1.82,0,0,1-1.67,0,.5.5,0,0,1,0-1,1.82,1.82,0,0,1,1.67,0A.5.5,0,0,1,337.78,274.25Z" style="fill:#fff;opacity:0.7000000000000001"></path><ellipse cx="325.61" cy="316.44" rx="19.26" ry="11.12" style="fill:#407BFF"></ellipse><ellipse cx="325.61" cy="316.44" rx="19.26" ry="11.12" style="fill:#fff;opacity:0.2"></ellipse><path d="M339.22,322.21c-7.52,4.34-19.71,4.34-27.23,0s-7.52-11.38,0-15.72,19.71-4.34,27.23,0S346.74,317.87,339.22,322.21Z" style="fill:#407BFF"></path><path d="M339.22,322.21c-7.52,4.34-19.71,4.34-27.23,0s-7.52-11.38,0-15.72,19.71-4.34,27.23,0S346.74,317.87,339.22,322.21Z" style="fill:#fff;opacity:0.4"></path><path d="M317.82,309.94a3.21,3.21,0,0,1-2.88,0,.88.88,0,0,1,0-1.66,3.18,3.18,0,0,1,2.88,0A.88.88,0,0,1,317.82,309.94Z" style="fill:#407BFF"></path><path d="M317.82,309.94a3.21,3.21,0,0,1-2.88,0,.88.88,0,0,1,0-1.66,3.18,3.18,0,0,1,2.88,0A.88.88,0,0,1,317.82,309.94Z" style="fill:#fff;opacity:0.7000000000000001"></path><path d="M328.71,320.23a3.24,3.24,0,0,1-2.88,0,.88.88,0,0,1,0-1.67,3.18,3.18,0,0,1,2.88,0A.88.88,0,0,1,328.71,320.23Z" style="fill:#407BFF"></path><path d="M328.71,320.23a3.24,3.24,0,0,1-2.88,0,.88.88,0,0,1,0-1.67,3.18,3.18,0,0,1,2.88,0A.88.88,0,0,1,328.71,320.23Z" style="fill:#fff;opacity:0.7000000000000001"></path><path d="M312.79,313.51a1.91,1.91,0,0,1-1.68,0,.51.51,0,0,1,0-1,1.84,1.84,0,0,1,1.68,0A.51.51,0,0,1,312.79,313.51Z" style="fill:#407BFF"></path><path d="M312.79,313.51a1.91,1.91,0,0,1-1.68,0,.51.51,0,0,1,0-1,1.84,1.84,0,0,1,1.68,0A.51.51,0,0,1,312.79,313.51Z" style="fill:#fff;opacity:0.7000000000000001"></path><path d="M325.55,316.13a1.84,1.84,0,0,1-1.68,0,.51.51,0,0,1,0-1,1.91,1.91,0,0,1,1.68,0A.51.51,0,0,1,325.55,316.13Z" style="fill:#407BFF"></path><path d="M325.55,316.13a1.84,1.84,0,0,1-1.68,0,.51.51,0,0,1,0-1,1.91,1.91,0,0,1,1.68,0A.51.51,0,0,1,325.55,316.13Z" style="fill:#fff;opacity:0.7000000000000001"></path><path d="M329.49,312.42a1.91,1.91,0,0,1-1.68,0c-.47-.27-.47-.71,0-1a1.84,1.84,0,0,1,1.68,0A.51.51,0,0,1,329.49,312.42Z" style="fill:#407BFF"></path><path d="M329.49,312.42a1.91,1.91,0,0,1-1.68,0c-.47-.27-.47-.71,0-1a1.84,1.84,0,0,1,1.68,0A.51.51,0,0,1,329.49,312.42Z" style="fill:#fff;opacity:0.7000000000000001"></path><path d="M319.26,319.24a1.84,1.84,0,0,1-1.68,0c-.47-.27-.47-.7,0-1a1.84,1.84,0,0,1,1.68,0A.51.51,0,0,1,319.26,319.24Z" style="fill:#407BFF"></path><path d="M319.26,319.24a1.84,1.84,0,0,1-1.68,0c-.47-.27-.47-.7,0-1a1.84,1.84,0,0,1,1.68,0A.51.51,0,0,1,319.26,319.24Z" style="fill:#fff;opacity:0.7000000000000001"></path><path d="M333.89,321.05a1.84,1.84,0,0,1-1.68,0,.51.51,0,0,1,0-1,1.84,1.84,0,0,1,1.68,0A.51.51,0,0,1,333.89,321.05Z" style="fill:#407BFF"></path><path d="M333.89,321.05a1.84,1.84,0,0,1-1.68,0,.51.51,0,0,1,0-1,1.84,1.84,0,0,1,1.68,0A.51.51,0,0,1,333.89,321.05Z" style="fill:#fff;opacity:0.7000000000000001"></path><path d="M337.78,310.07a1.82,1.82,0,0,1-1.67,0c-.47-.27-.47-.7,0-1a1.89,1.89,0,0,1,1.67,0C338.25,309.37,338.25,309.8,337.78,310.07Z" style="fill:#407BFF"></path><path d="M337.78,310.07a1.82,1.82,0,0,1-1.67,0c-.47-.27-.47-.7,0-1a1.89,1.89,0,0,1,1.67,0C338.25,309.37,338.25,309.8,337.78,310.07Z" style="fill:#fff;opacity:0.7000000000000001"></path><path d="M278.44,300.41c-7.52,4.34-19.72,4.34-27.24,0s-7.52-11.38,0-15.72,19.72-4.34,27.24,0S286,296.07,278.44,300.41Z" style="fill:#407BFF"></path><path d="M278.44,300.41c-7.52,4.34-19.72,4.34-27.24,0s-7.52-11.38,0-15.72,19.72-4.34,27.24,0S286,296.07,278.44,300.41Z" style="fill:#fff;opacity:0.2"></path><ellipse cx="264.82" cy="290.46" rx="19.26" ry="11.12" style="fill:#407BFF"></ellipse><ellipse cx="264.82" cy="290.46" rx="19.26" ry="11.12" style="fill:#fff;opacity:0.4"></ellipse><path d="M257,286a3.16,3.16,0,0,1-2.87,0,.87.87,0,0,1,0-1.66,3.16,3.16,0,0,1,2.87,0A.87.87,0,0,1,257,286Z" style="fill:#407BFF"></path><path d="M257,286a3.16,3.16,0,0,1-2.87,0,.87.87,0,0,1,0-1.66,3.16,3.16,0,0,1,2.87,0A.87.87,0,0,1,257,286Z" style="fill:#fff;opacity:0.7000000000000001"></path><ellipse cx="266.48" cy="295.5" rx="2.04" ry="1.18" style="fill:#407BFF"></ellipse><ellipse cx="266.48" cy="295.5" rx="2.04" ry="1.18" style="fill:#fff;opacity:0.7000000000000001"></ellipse><path d="M252,289.61a1.82,1.82,0,0,1-1.67,0c-.47-.27-.47-.7,0-1a1.82,1.82,0,0,1,1.67,0C252.47,288.91,252.47,289.34,252,289.61Z" style="fill:#407BFF"></path><path d="M252,289.61a1.82,1.82,0,0,1-1.67,0c-.47-.27-.47-.7,0-1a1.82,1.82,0,0,1,1.67,0C252.47,288.91,252.47,289.34,252,289.61Z" style="fill:#fff;opacity:0.7000000000000001"></path><path d="M264.77,292.24a1.91,1.91,0,0,1-1.68,0c-.47-.27-.47-.7,0-1a1.84,1.84,0,0,1,1.68,0A.51.51,0,0,1,264.77,292.24Z" style="fill:#407BFF"></path><path d="M264.77,292.24a1.91,1.91,0,0,1-1.68,0c-.47-.27-.47-.7,0-1a1.84,1.84,0,0,1,1.68,0A.51.51,0,0,1,264.77,292.24Z" style="fill:#fff;opacity:0.7000000000000001"></path><ellipse cx="267.86" cy="288.04" rx="1.19" ry="0.69" style="fill:#407BFF"></ellipse><ellipse cx="267.86" cy="288.04" rx="1.19" ry="0.69" style="fill:#fff;opacity:0.7000000000000001"></ellipse><ellipse cx="257.63" cy="294.86" rx="1.19" ry="0.69" style="fill:#407BFF"></ellipse><ellipse cx="257.63" cy="294.86" rx="1.19" ry="0.69" style="fill:#fff;opacity:0.7000000000000001"></ellipse><path d="M273.1,297.16a1.82,1.82,0,0,1-1.67,0c-.47-.27-.47-.7,0-1a1.82,1.82,0,0,1,1.67,0C273.57,296.46,273.57,296.89,273.1,297.16Z" style="fill:#407BFF"></path><path d="M273.1,297.16a1.82,1.82,0,0,1-1.67,0c-.47-.27-.47-.7,0-1a1.82,1.82,0,0,1,1.67,0C273.57,296.46,273.57,296.89,273.1,297.16Z" style="fill:#fff;opacity:0.7000000000000001"></path><path d="M277,286.18a1.84,1.84,0,0,1-1.68,0,.51.51,0,0,1,0-1,1.84,1.84,0,0,1,1.68,0A.51.51,0,0,1,277,286.18Z" style="fill:#407BFF"></path><path d="M277,286.18a1.84,1.84,0,0,1-1.68,0,.51.51,0,0,1,0-1,1.84,1.84,0,0,1,1.68,0A.51.51,0,0,1,277,286.18Z" style="fill:#fff;opacity:0.7000000000000001"></path><path d="M400,300.41c-7.52,4.34-19.71,4.34-27.23,0s-7.52-11.38,0-15.72,19.71-4.34,27.23,0S407.53,296.07,400,300.41Z" style="fill:#407BFF"></path><path d="M400,300.41c-7.52,4.34-19.71,4.34-27.23,0s-7.52-11.38,0-15.72,19.71-4.34,27.23,0S407.53,296.07,400,300.41Z" style="fill:#fff;opacity:0.2"></path><ellipse cx="386.39" cy="290.46" rx="19.26" ry="11.12" style="fill:#407BFF"></ellipse><ellipse cx="386.39" cy="290.46" rx="19.26" ry="11.12" style="fill:#fff;opacity:0.4"></ellipse><path d="M378.61,286a3.18,3.18,0,0,1-2.88,0,.87.87,0,0,1,0-1.66,3.18,3.18,0,0,1,2.88,0A.88.88,0,0,1,378.61,286Z" style="fill:#407BFF"></path><path d="M378.61,286a3.18,3.18,0,0,1-2.88,0,.87.87,0,0,1,0-1.66,3.18,3.18,0,0,1,2.88,0A.88.88,0,0,1,378.61,286Z" style="fill:#fff;opacity:0.7000000000000001"></path><path d="M389.49,296.33a3.18,3.18,0,0,1-2.88,0,.88.88,0,0,1,0-1.66,3.18,3.18,0,0,1,2.88,0A.87.87,0,0,1,389.49,296.33Z" style="fill:#407BFF"></path><path d="M389.49,296.33a3.18,3.18,0,0,1-2.88,0,.88.88,0,0,1,0-1.66,3.18,3.18,0,0,1,2.88,0A.87.87,0,0,1,389.49,296.33Z" style="fill:#fff;opacity:0.7000000000000001"></path><ellipse cx="372.74" cy="289.13" rx="1.19" ry="0.69" style="fill:#407BFF"></ellipse><ellipse cx="372.74" cy="289.13" rx="1.19" ry="0.69" style="fill:#fff;opacity:0.7000000000000001"></ellipse><path d="M386.34,292.24a1.91,1.91,0,0,1-1.68,0,.51.51,0,0,1,0-1,1.84,1.84,0,0,1,1.68,0A.51.51,0,0,1,386.34,292.24Z" style="fill:#407BFF"></path><path d="M386.34,292.24a1.91,1.91,0,0,1-1.68,0,.51.51,0,0,1,0-1,1.84,1.84,0,0,1,1.68,0A.51.51,0,0,1,386.34,292.24Z" style="fill:#fff;opacity:0.7000000000000001"></path><path d="M390.27,288.52a1.84,1.84,0,0,1-1.68,0,.51.51,0,0,1,0-1,1.84,1.84,0,0,1,1.68,0C390.74,287.82,390.74,288.25,390.27,288.52Z" style="fill:#407BFF"></path><path d="M390.27,288.52a1.84,1.84,0,0,1-1.68,0,.51.51,0,0,1,0-1,1.84,1.84,0,0,1,1.68,0C390.74,287.82,390.74,288.25,390.27,288.52Z" style="fill:#fff;opacity:0.7000000000000001"></path><path d="M380,295.34a1.84,1.84,0,0,1-1.68,0,.51.51,0,0,1,0-1,1.84,1.84,0,0,1,1.68,0A.51.51,0,0,1,380,295.34Z" style="fill:#407BFF"></path><path d="M380,295.34a1.84,1.84,0,0,1-1.68,0,.51.51,0,0,1,0-1,1.84,1.84,0,0,1,1.68,0A.51.51,0,0,1,380,295.34Z" style="fill:#fff;opacity:0.7000000000000001"></path><path d="M394.68,297.16a1.84,1.84,0,0,1-1.68,0c-.47-.27-.47-.7,0-1a1.84,1.84,0,0,1,1.68,0A.51.51,0,0,1,394.68,297.16Z" style="fill:#407BFF"></path><path d="M394.68,297.16a1.84,1.84,0,0,1-1.68,0c-.47-.27-.47-.7,0-1a1.84,1.84,0,0,1,1.68,0A.51.51,0,0,1,394.68,297.16Z" style="fill:#fff;opacity:0.7000000000000001"></path><path d="M398.57,286.18a1.84,1.84,0,0,1-1.68,0,.51.51,0,0,1,0-1,1.84,1.84,0,0,1,1.68,0A.51.51,0,0,1,398.57,286.18Z" style="fill:#407BFF"></path><path d="M398.57,286.18a1.84,1.84,0,0,1-1.68,0,.51.51,0,0,1,0-1,1.84,1.84,0,0,1,1.68,0A.51.51,0,0,1,398.57,286.18Z" style="fill:#fff;opacity:0.7000000000000001"></path><path d="M298.54,306.74a10.65,10.65,0,0,1-5.24-1.28,4.2,4.2,0,0,1,0-7.77,11.41,11.41,0,0,1,10.48,0,4.2,4.2,0,0,1,0,7.77h0A10.67,10.67,0,0,1,298.54,306.74Zm0-7.33a7.74,7.74,0,0,0-3.74.87c-.69.4-1.11.89-1.11,1.29s.42.9,1.11,1.3a8.47,8.47,0,0,0,7.48,0h0c.69-.4,1.1-.89,1.1-1.3s-.41-.89-1.1-1.29A7.77,7.77,0,0,0,298.54,299.41Z" style="fill:#455a64"></path><path d="M351.33,306.38a10.63,10.63,0,0,1-5.23-1.27,4.2,4.2,0,0,1,0-7.78,11.44,11.44,0,0,1,10.47,0,4.2,4.2,0,0,1,0,7.78h0A10.64,10.64,0,0,1,351.33,306.38Zm0-7.33a7.7,7.7,0,0,0-3.73.88c-.7.4-1.11.88-1.11,1.29s.41.89,1.11,1.29a8.39,8.39,0,0,0,7.47,0h0c.69-.4,1.11-.88,1.11-1.29s-.42-.89-1.11-1.29A7.71,7.71,0,0,0,351.33,299.05Z" style="fill:#455a64"></path><path d="M390.85,263.2a10.64,10.64,0,0,1-5.24-1.27,4.2,4.2,0,0,1,0-7.78,11.41,11.41,0,0,1,10.48,0,4.21,4.21,0,0,1,0,7.78h0A10.67,10.67,0,0,1,390.85,263.2Zm0-7.33a7.63,7.63,0,0,0-3.74.88c-.69.4-1.11.88-1.11,1.29s.42.89,1.11,1.29a8.41,8.41,0,0,0,7.48,0h0c.69-.4,1.1-.88,1.1-1.29s-.41-.89-1.1-1.29A7.66,7.66,0,0,0,390.85,255.87Z" style="fill:#455a64"></path><path d="M359.15,278.85a6.87,6.87,0,0,1,2.9,2.9c.74,1.6,4.22,2.15,6.24,1l.21-.12c4-2.45,4-6.37.07-8.83-4.35-2.71-11.67-2.77-16.15-.18l-.05,0c-2,1.16-1,3.14,1.77,3.56A14.52,14.52,0,0,1,359.15,278.85Z" style="fill:#e0e0e0"></path><path d="M363,278.83l-1.89-1.09-1.89-1.09-8.1,3.09c-1.17.44-1.33,1.39-.34,2l1.73,1,1.73,1a3.34,3.34,0,0,0,3.41-.19Z" style="fill:#e0e0e0"></path><path d="M359.15,277.08a6.8,6.8,0,0,1,2.9,2.89c.74,1.6,4.22,2.16,6.24,1l.21-.12c4-2.44,4-6.37.07-8.83-4.35-2.71-11.67-2.77-16.15-.18l-.05,0c-2,1.16-1,3.14,1.77,3.56A14.52,14.52,0,0,1,359.15,277.08Z" style="fill:#fafafa"></path><path d="M363,277.05,361.09,276l-1.89-1.09L351.1,278c-1.17.45-1.33,1.4-.34,2l1.73,1,1.73,1a3.34,3.34,0,0,0,3.41-.2Z" style="fill:#fafafa"></path><path d="M326.15,294.4a6.79,6.79,0,0,1,2.89,2.9c.74,1.6,4.22,2.15,6.24,1l.21-.13c4-2.44,4-6.36.07-8.82-4.35-2.71-11.67-2.77-16.15-.19l-.05,0c-2,1.16-1,3.14,1.77,3.56A14.57,14.57,0,0,1,326.15,294.4Z" style="fill:#e0e0e0"></path><path d="M330,294.38l-1.89-1.09-1.89-1.1-8.1,3.1c-1.17.44-1.33,1.39-.34,2l1.73,1,1.73,1a3.32,3.32,0,0,0,3.41-.2Z" style="fill:#e0e0e0"></path><path d="M326.15,292.63a6.77,6.77,0,0,1,2.89,2.89c.74,1.6,4.22,2.16,6.24,1l.21-.12c4-2.44,4-6.37.07-8.83-4.35-2.71-11.67-2.77-16.15-.18l-.05,0c-2,1.16-1,3.14,1.77,3.56A14.37,14.37,0,0,1,326.15,292.63Z" style="fill:#fafafa"></path><path d="M330,292.6l-1.89-1.09-1.89-1.09-8.1,3.09c-1.17.45-1.33,1.4-.34,2l1.73,1,1.73,1a3.34,3.34,0,0,0,3.41-.2Z" style="fill:#fafafa"></path><path d="M293,278.85a6.84,6.84,0,0,0-2.89,2.9c-.74,1.6-4.22,2.15-6.24,1l-.21-.12c-4-2.45-4-6.37-.07-8.83,4.34-2.71,11.67-2.77,16.15-.18l.05,0c2,1.16,1,3.14-1.77,3.56A14.5,14.5,0,0,0,293,278.85Z" style="fill:#e0e0e0"></path><path d="M289.22,278.83l1.89-1.09,1.89-1.09,8.1,3.09c1.16.44,1.33,1.39.34,2l-1.73,1-1.73,1a3.34,3.34,0,0,1-3.41-.19Z" style="fill:#e0e0e0"></path><path d="M293,277.08a6.77,6.77,0,0,0-2.89,2.89c-.74,1.6-4.22,2.16-6.24,1l-.21-.12c-4-2.44-4-6.37-.07-8.83,4.34-2.71,11.67-2.77,16.15-.18l.05,0c2,1.16,1,3.14-1.77,3.56A14.5,14.5,0,0,0,293,277.08Z" style="fill:#fafafa"></path><path d="M289.22,277.05l1.89-1.09,1.89-1.09,8.1,3.09c1.16.45,1.33,1.4.34,2l-1.73,1-1.73,1a3.34,3.34,0,0,1-3.41-.2Z" style="fill:#fafafa"></path><path d="M400.56,273.49a6.77,6.77,0,0,1,2.89,2.89c.74,1.6,4.22,2.16,6.24,1l.21-.13c4-2.44,4-6.36.07-8.83-4.34-2.7-11.67-2.76-16.15-.18l-.05,0c-2,1.16-1,3.14,1.77,3.56A14.5,14.5,0,0,1,400.56,273.49Z" style="fill:#e0e0e0"></path><path d="M404.39,273.47l-1.9-1.1-1.89-1.09-8.1,3.09c-1.16.45-1.33,1.4-.34,2l1.73,1,1.74,1a3.3,3.3,0,0,0,3.4-.2Z" style="fill:#e0e0e0"></path><path d="M400.56,271.72a6.77,6.77,0,0,1,2.89,2.89c.74,1.6,4.22,2.16,6.24,1l.21-.12c4-2.45,4-6.37.07-8.83-4.34-2.71-11.67-2.77-16.15-.18l-.05,0c-2,1.16-1,3.13,1.77,3.55A14.51,14.51,0,0,1,400.56,271.72Z" style="fill:#fafafa"></path><path d="M404.39,271.69l-1.9-1.09-1.89-1.09-8.1,3.09c-1.16.44-1.33,1.39-.34,2l1.73,1,1.74,1a3.32,3.32,0,0,0,3.4-.2Z" style="fill:#fafafa"></path><path d="M257.78,261.93h0a4.2,4.2,0,0,1,0-7.78,11.38,11.38,0,0,1,10.47,0,4.2,4.2,0,0,1,0,7.78,11.42,11.42,0,0,1-10.47,0Zm1.5-5.18c-.7.4-1.11.88-1.11,1.29s.41.89,1.11,1.29h0a8.39,8.39,0,0,0,7.47,0c.69-.4,1.11-.88,1.11-1.29s-.42-.89-1.11-1.29a8.37,8.37,0,0,0-7.47,0Z" style="fill:#455a64"></path><path d="M253.3,273.49a6.77,6.77,0,0,0-2.89,2.89c-.74,1.6-4.22,2.16-6.24,1l-.21-.13c-4-2.44-4-6.36-.07-8.83,4.34-2.7,11.67-2.76,16.15-.18l0,0c2,1.16,1,3.14-1.77,3.56A14.5,14.5,0,0,0,253.3,273.49Z" style="fill:#e0e0e0"></path><path d="M249.48,273.47l1.89-1.1,1.89-1.09,8.1,3.09c1.16.45,1.33,1.4.34,2l-1.73,1-1.74,1a3.3,3.3,0,0,1-3.4-.2Z" style="fill:#e0e0e0"></path><path d="M253.3,271.72a6.77,6.77,0,0,0-2.89,2.89c-.74,1.6-4.22,2.16-6.24,1l-.21-.12c-4-2.45-4-6.37-.07-8.83,4.34-2.71,11.67-2.77,16.15-.18l0,0c2,1.16,1,3.13-1.77,3.55A14.51,14.51,0,0,0,253.3,271.72Z" style="fill:#fafafa"></path><path d="M249.48,271.69l1.89-1.09,1.89-1.09,8.1,3.09c1.16.44,1.33,1.39.34,2l-1.73,1-1.74,1a3.32,3.32,0,0,1-3.4-.2Z" style="fill:#fafafa"></path><path d="M372.68,312.55a6.84,6.84,0,0,0,2.89-2.9c.74-1.6,4.22-2.15,6.24-1l.21.12c4,2.45,4,6.37.07,8.83-4.34,2.71-11.67,2.77-16.15.18l-.05,0c-2-1.16-1-3.14,1.77-3.56A14.79,14.79,0,0,0,372.68,312.55Z" style="fill:#e0e0e0"></path><path d="M376.5,312.57l-1.89,1.09-1.89,1.09-8.1-3.09c-1.16-.44-1.33-1.39-.34-2l1.73-1,1.73-1a3.34,3.34,0,0,1,3.41.19Z" style="fill:#e0e0e0"></path><path d="M372.68,310.77a6.77,6.77,0,0,0,2.89-2.89c.74-1.6,4.22-2.16,6.24-1l.21.13c4,2.44,4,6.36.07,8.83-4.34,2.7-11.67,2.77-16.15.18l-.05,0c-2-1.16-1-3.14,1.77-3.56A14.57,14.57,0,0,0,372.68,310.77Z" style="fill:#fafafa"></path><path d="M376.5,310.79l-1.89,1.1L372.72,313l-8.1-3.09c-1.16-.45-1.33-1.4-.34-2l1.73-1,1.73-1a3.34,3.34,0,0,1,3.41.2Z" style="fill:#fafafa"></path><path d="M376.74,274.26c5,2.9,15.28,1.67,15.28,1.67s2.13-5.93-2.88-8.83-15.3-1.67-15.3-1.67S371.71,271.36,376.74,274.26Z" style="fill:#407BFF"></path><path d="M376.74,274.26c5,2.9,15.28,1.67,15.28,1.67s2.13-5.93-2.88-8.83-15.3-1.67-15.3-1.67S371.71,271.36,376.74,274.26Z" style="fill:#fff;opacity:0.4"></path><path d="M376.74,274.26c5,2.9,15.28,1.67,15.28,1.67l-18.18-10.5S371.71,271.36,376.74,274.26Z" style="fill:#407BFF"></path><path d="M376.74,274.26c5,2.9,15.28,1.67,15.28,1.67l-18.18-10.5S371.71,271.36,376.74,274.26Z" style="fill:#fff;opacity:0.2"></path><path d="M277.05,274.26c-5,2.9-15.28,1.67-15.28,1.67s-2.13-5.93,2.88-8.83,15.3-1.67,15.3-1.67S282.08,271.36,277.05,274.26Z" style="fill:#407BFF"></path><path d="M277.05,274.26c-5,2.9-15.28,1.67-15.28,1.67s-2.13-5.93,2.88-8.83,15.3-1.67,15.3-1.67S282.08,271.36,277.05,274.26Z" style="fill:#fff;opacity:0.4"></path><path d="M277.05,274.26c-5,2.9-15.28,1.67-15.28,1.67L280,265.43S282.08,271.36,277.05,274.26Z" style="fill:#407BFF"></path><path d="M277.05,274.26c-5,2.9-15.28,1.67-15.28,1.67L280,265.43S282.08,271.36,277.05,274.26Z" style="fill:#fff;opacity:0.2"></path><path d="M348.33,295.64c5,2.89,15.28,1.66,15.28,1.66s2.13-5.93-2.88-8.82-15.3-1.67-15.3-1.67S343.3,292.74,348.33,295.64Z" style="fill:#407BFF"></path><path d="M348.33,295.64c5,2.89,15.28,1.66,15.28,1.66s2.13-5.93-2.88-8.82-15.3-1.67-15.3-1.67S343.3,292.74,348.33,295.64Z" style="fill:#fff;opacity:0.4"></path><path d="M348.33,295.64c5,2.89,15.28,1.66,15.28,1.66l-18.18-10.49S343.3,292.74,348.33,295.64Z" style="fill:#407BFF"></path><path d="M348.33,295.64c5,2.89,15.28,1.66,15.28,1.66l-18.18-10.49S343.3,292.74,348.33,295.64Z" style="fill:#fff;opacity:0.2"></path><path d="M304.74,295.64c-5,2.89-15.29,1.66-15.29,1.66s-2.13-5.93,2.88-8.82,15.3-1.67,15.3-1.67S309.76,292.74,304.74,295.64Z" style="fill:#407BFF"></path><path d="M304.74,295.64c-5,2.89-15.29,1.66-15.29,1.66s-2.13-5.93,2.88-8.82,15.3-1.67,15.3-1.67S309.76,292.74,304.74,295.64Z" style="fill:#fff;opacity:0.4"></path><path d="M304.74,295.64c-5,2.89-15.29,1.66-15.29,1.66l18.18-10.49S309.76,292.74,304.74,295.64Z" style="fill:#407BFF"></path><path d="M304.74,295.64c-5,2.89-15.29,1.66-15.29,1.66l18.18-10.49S309.76,292.74,304.74,295.64Z" style="fill:#fff;opacity:0.2"></path><path d="M329.16,246c-5,2.89-15.29,1.66-15.29,1.66s-2.13-5.93,2.88-8.82,15.3-1.67,15.3-1.67S334.18,243.12,329.16,246Z" style="fill:#407BFF"></path><path d="M329.16,246c-5,2.89-15.29,1.66-15.29,1.66s-2.13-5.93,2.88-8.82,15.3-1.67,15.3-1.67S334.18,243.12,329.16,246Z" style="fill:#fff;opacity:0.4"></path><path d="M329.16,246c-5,2.89-15.29,1.66-15.29,1.66l18.18-10.49S334.18,243.12,329.16,246Z" style="fill:#407BFF"></path><path d="M329.16,246c-5,2.89-15.29,1.66-15.29,1.66l18.18-10.49S334.18,243.12,329.16,246Z" style="fill:#fff;opacity:0.2"></path><path d="M353.55,322.34c5,2.89,15.28,1.66,15.28,1.66s2.13-5.93-2.88-8.82-15.29-1.67-15.29-1.67S348.52,319.44,353.55,322.34Z" style="fill:#407BFF"></path><path d="M353.55,322.34c5,2.89,15.28,1.66,15.28,1.66s2.13-5.93-2.88-8.82-15.29-1.67-15.29-1.67S348.52,319.44,353.55,322.34Z" style="fill:#fff;opacity:0.4"></path><path d="M353.55,322.34c5,2.89,15.28,1.66,15.28,1.66l-18.17-10.49S348.52,319.44,353.55,322.34Z" style="fill:#407BFF"></path><path d="M353.55,322.34c5,2.89,15.28,1.66,15.28,1.66l-18.17-10.49S348.52,319.44,353.55,322.34Z" style="fill:#fff;opacity:0.2"></path><path d="M261.57,315.51c5,2.9,15.28,1.67,15.28,1.67s2.14-5.93-2.88-8.83-15.29-1.67-15.29-1.67S256.55,312.61,261.57,315.51Z" style="fill:#407BFF"></path><path d="M261.57,315.51c5,2.9,15.28,1.67,15.28,1.67s2.14-5.93-2.88-8.83-15.29-1.67-15.29-1.67S256.55,312.61,261.57,315.51Z" style="fill:#fff;opacity:0.4"></path><path d="M261.57,315.51c5,2.9,15.28,1.67,15.28,1.67l-18.17-10.5S256.55,312.61,261.57,315.51Z" style="fill:#407BFF"></path><path d="M261.57,315.51c5,2.9,15.28,1.67,15.28,1.67l-18.17-10.5S256.55,312.61,261.57,315.51Z" style="fill:#fff;opacity:0.2"></path><path d="M325.61,264.57a10.64,10.64,0,0,1-5.24-1.27,4.2,4.2,0,0,1,0-7.78,11.38,11.38,0,0,1,10.47,0,4.2,4.2,0,0,1,0,7.78h0A10.63,10.63,0,0,1,325.61,264.57Zm0-7.33a7.6,7.6,0,0,0-3.74.88c-.69.4-1.11.88-1.11,1.29s.42.89,1.11,1.29a8.39,8.39,0,0,0,7.47,0h0c.7-.4,1.11-.88,1.11-1.29s-.41-.89-1.11-1.29A7.59,7.59,0,0,0,325.61,257.24Z" style="fill:#455a64"></path><path d="M287,315.54a6.82,6.82,0,0,1-2.9-2.9c-.74-1.6-4.21-2.15-6.24-1a1.37,1.37,0,0,0-.2.13c-4,2.44-4,6.36-.08,8.82,4.35,2.71,11.68,2.77,16.16.19l.05,0c2-1.16.95-3.14-1.77-3.56A14.5,14.5,0,0,1,287,315.54Z" style="fill:#e0e0e0"></path><path d="M283.13,315.56l1.89,1.09,1.9,1.1,8.09-3.1c1.17-.44,1.34-1.39.35-2l-1.73-1-1.74-1a3.3,3.3,0,0,0-3.4.2Z" style="fill:#e0e0e0"></path><path d="M287,313.76a6.8,6.8,0,0,1-2.9-2.89c-.74-1.6-4.21-2.16-6.24-1l-.2.12c-4,2.44-4,6.37-.08,8.83,4.35,2.71,11.68,2.77,16.16.18l.05,0c2-1.16.95-3.14-1.77-3.56A14.5,14.5,0,0,1,287,313.76Z" style="fill:#fafafa"></path><path d="M283.13,313.79l1.89,1.09,1.9,1.09,8.09-3.09c1.17-.45,1.34-1.4.35-2l-1.73-1-1.74-1a3.32,3.32,0,0,0-3.4.2Z" style="fill:#fafafa"></path><path d="M330.07,248.15a6.8,6.8,0,0,0-2.9,2.89c-.74,1.6-4.21,2.16-6.24,1l-.2-.12c-4-2.44-4-6.37-.08-8.83,4.35-2.71,11.68-2.77,16.16-.18l.05,0c2,1.16.95,3.14-1.77,3.56A14.5,14.5,0,0,0,330.07,248.15Z" style="fill:#e0e0e0"></path><path d="M326.24,248.12l1.89-1.09,1.89-1.09,8.1,3.09c1.17.45,1.34,1.4.35,2l-1.74,1L335,253a3.32,3.32,0,0,1-3.4-.2Z" style="fill:#e0e0e0"></path><path d="M330.07,246.37a6.82,6.82,0,0,0-2.9,2.9c-.74,1.6-4.21,2.15-6.24,1a1.37,1.37,0,0,1-.2-.13c-4-2.44-4-6.36-.08-8.82,4.35-2.71,11.68-2.77,16.16-.19l.05,0c2,1.16.95,3.14-1.77,3.56A14.5,14.5,0,0,0,330.07,246.37Z" style="fill:#fafafa"></path><path d="M326.24,246.35l1.89-1.09,1.89-1.1,8.1,3.1c1.17.44,1.34,1.39.35,2l-1.74,1-1.73,1a3.3,3.3,0,0,1-3.4-.2Z" style="fill:#fafafa"></path><path d="M349.47,269.19l-5-.64c.45-2.63-1.07-5.34-4.55-7.35a22,22,0,0,0-9.6-2.63v-3.29a28.06,28.06,0,0,1,14.28,3.22C349.57,261.39,351.2,265.5,349.47,269.19Z" style="fill:#fafafa"></path><path d="M400.44,308l-5-.64c.44-2.63-1.08-5.34-4.56-7.35a22,22,0,0,0-9.6-2.63v-3.29a28,28,0,0,1,14.28,3.22C400.54,300.24,402.17,304.35,400.44,308Z" style="fill:#fafafa"></path><path d="M240.3,299.87l5-.65c-.44-2.62,1.08-5.34,4.56-7.35a22,22,0,0,1,9.6-2.62V286a28,28,0,0,0-14.28,3.21C240.2,292.07,238.57,296.18,240.3,299.87Z" style="fill:#fafafa"></path><path d="M300.81,326.78l5.05-.65c-.45-2.62,1.07-5.34,4.55-7.35a22,22,0,0,1,9.6-2.62v-3.29a28.05,28.05,0,0,0-14.28,3.21C300.71,319,299.08,323.09,300.81,326.78Z" style="fill:#fafafa"></path><path d="M304.16,291l5-.65c-.44-2.62,1.07-5.34,4.55-7.35a22,22,0,0,1,9.6-2.62v-3.29a27.89,27.89,0,0,0-14.27,3.21C304.06,283.24,302.43,287.34,304.16,291Z" style="fill:#fafafa"></path><path d="M286.74,251.12l5.05-.64c-.45-2.63,1.07-5.34,4.55-7.35a22,22,0,0,1,9.6-2.63v-3.29a28,28,0,0,0-14.28,3.22C286.64,243.32,285,247.43,286.74,251.12Z" style="fill:#fafafa"></path><path d="M345.67,240.48a4.81,4.81,0,0,1-4.37,0,1.33,1.33,0,0,1,0-2.52,4.81,4.81,0,0,1,4.37,0A1.33,1.33,0,0,1,345.67,240.48Z" style="fill:#407BFF"></path><path d="M345.67,240.48a4.81,4.81,0,0,1-4.37,0,1.33,1.33,0,0,1,0-2.52,4.81,4.81,0,0,1,4.37,0A1.33,1.33,0,0,1,345.67,240.48Z" style="fill:#fff;opacity:0.4"></path><path d="M340,266.7a4.87,4.87,0,0,1-4.37,0,1.34,1.34,0,0,1,0-2.53,4.87,4.87,0,0,1,4.37,0A1.34,1.34,0,0,1,340,266.7Z" style="fill:#407BFF"></path><path d="M340,266.7a4.87,4.87,0,0,1-4.37,0,1.34,1.34,0,0,1,0-2.53,4.87,4.87,0,0,1,4.37,0A1.34,1.34,0,0,1,340,266.7Z" style="fill:#fff;opacity:0.4"></path><path d="M310.26,267a4.87,4.87,0,0,1-4.37,0,1.33,1.33,0,0,1,0-2.52,4.81,4.81,0,0,1,4.37,0A1.33,1.33,0,0,1,310.26,267Z" style="fill:#407BFF"></path><path d="M310.26,267a4.87,4.87,0,0,1-4.37,0,1.33,1.33,0,0,1,0-2.52,4.81,4.81,0,0,1,4.37,0A1.33,1.33,0,0,1,310.26,267Z" style="fill:#fff;opacity:0.4"></path><path d="M241.82,283.56a4.81,4.81,0,0,1-4.37,0,1.33,1.33,0,0,1,0-2.52,4.81,4.81,0,0,1,4.37,0A1.33,1.33,0,0,1,241.82,283.56Z" style="fill:#407BFF"></path><path d="M241.82,283.56a4.81,4.81,0,0,1-4.37,0,1.33,1.33,0,0,1,0-2.52,4.81,4.81,0,0,1,4.37,0A1.33,1.33,0,0,1,241.82,283.56Z" style="fill:#fff;opacity:0.4"></path><path d="M253.22,307.53a4.87,4.87,0,0,1-4.37,0,1.33,1.33,0,0,1,0-2.52,4.81,4.81,0,0,1,4.37,0A1.33,1.33,0,0,1,253.22,307.53Z" style="fill:#407BFF"></path><path d="M253.22,307.53a4.87,4.87,0,0,1-4.37,0,1.33,1.33,0,0,1,0-2.52,4.81,4.81,0,0,1,4.37,0A1.33,1.33,0,0,1,253.22,307.53Z" style="fill:#fff;opacity:0.4"></path><path d="M314.77,300.17a4.87,4.87,0,0,1-4.37,0,1.33,1.33,0,0,1,0-2.52,4.81,4.81,0,0,1,4.37,0A1.33,1.33,0,0,1,314.77,300.17Z" style="fill:#407BFF"></path><path d="M314.77,300.17a4.87,4.87,0,0,1-4.37,0,1.33,1.33,0,0,1,0-2.52,4.81,4.81,0,0,1,4.37,0A1.33,1.33,0,0,1,314.77,300.17Z" style="fill:#fff;opacity:0.4"></path><path d="M412,285.3a4.87,4.87,0,0,1-4.37,0,1.34,1.34,0,0,1,0-2.53,4.87,4.87,0,0,1,4.37,0A1.34,1.34,0,0,1,412,285.3Z" style="fill:#407BFF"></path><path d="M412,285.3a4.87,4.87,0,0,1-4.37,0,1.34,1.34,0,0,1,0-2.53,4.87,4.87,0,0,1,4.37,0A1.34,1.34,0,0,1,412,285.3Z" style="fill:#fff;opacity:0.4"></path><path d="M393.7,314.51a4.81,4.81,0,0,1-4.37,0,1.33,1.33,0,0,1,0-2.52,4.81,4.81,0,0,1,4.37,0A1.33,1.33,0,0,1,393.7,314.51Z" style="fill:#407BFF"></path><path d="M393.7,314.51a4.81,4.81,0,0,1-4.37,0,1.33,1.33,0,0,1,0-2.52,4.81,4.81,0,0,1,4.37,0A1.33,1.33,0,0,1,393.7,314.51Z" style="fill:#fff;opacity:0.4"></path><path d="M386.5,250.38a4.81,4.81,0,0,1-4.37,0,1.33,1.33,0,0,1,0-2.52,4.81,4.81,0,0,1,4.37,0A1.33,1.33,0,0,1,386.5,250.38Z" style="fill:#407BFF"></path><path d="M386.5,250.38a4.81,4.81,0,0,1-4.37,0,1.33,1.33,0,0,1,0-2.52,4.81,4.81,0,0,1,4.37,0A1.33,1.33,0,0,1,386.5,250.38Z" style="fill:#fff;opacity:0.4"></path><path d="M286.26,305.74a4.81,4.81,0,0,1-4.37,0,1.33,1.33,0,0,1,0-2.52,4.87,4.87,0,0,1,4.37,0A1.33,1.33,0,0,1,286.26,305.74Z" style="fill:#407BFF"></path><path d="M286.26,305.74a4.81,4.81,0,0,1-4.37,0,1.33,1.33,0,0,1,0-2.52,4.87,4.87,0,0,1,4.37,0A1.33,1.33,0,0,1,286.26,305.74Z" style="fill:#fff;opacity:0.4"></path><path d="M339.13,302.84a4.87,4.87,0,0,1-4.37,0,1.34,1.34,0,0,1,0-2.53,4.87,4.87,0,0,1,4.37,0A1.34,1.34,0,0,1,339.13,302.84Z" style="fill:#407BFF"></path><path d="M339.13,302.84a4.87,4.87,0,0,1-4.37,0,1.34,1.34,0,0,1,0-2.53,4.87,4.87,0,0,1,4.37,0A1.34,1.34,0,0,1,339.13,302.84Z" style="fill:#fff;opacity:0.4"></path><path d="M295.13,328a4.81,4.81,0,0,1-4.37,0,1.33,1.33,0,0,1,0-2.52,4.81,4.81,0,0,1,4.37,0A1.33,1.33,0,0,1,295.13,328Z" style="fill:#407BFF"></path><path d="M295.13,328a4.81,4.81,0,0,1-4.37,0,1.33,1.33,0,0,1,0-2.52,4.81,4.81,0,0,1,4.37,0A1.33,1.33,0,0,1,295.13,328Z" style="fill:#fff;opacity:0.4"></path></g></svg>
