<svg width="14" height="14" viewBox="0 0 14 14" fill="none" xmlns="http://www.w3.org/2000/svg">
<g clip-path="url(#clip0_202_94)">
<path d="M13.16 7.14581C13.16 6.69081 13.1192 6.25331 13.0433 5.83331H7V8.3154H10.4533C10.3046 9.11748 9.8525 9.79706 9.17292 10.2521V11.8621H11.2467C12.46 10.745 13.16 9.09998 13.16 7.14581Z" fill="#4285F4"/>
<path d="M7 13.4167C8.7325 13.4167 10.185 12.8421 11.2467 11.8621L9.17291 10.2521C8.59833 10.6371 7.86333 10.8646 7 10.8646C5.32875 10.8646 3.91416 9.73584 3.40958 8.21918H1.26583V9.88168C2.32166 11.9788 4.49166 13.4167 7 13.4167Z" fill="#34A853"/>
<path d="M3.40957 8.21918C3.28124 7.83418 3.20832 7.42293 3.20832 7.00001C3.20832 6.5771 3.28124 6.16585 3.40957 5.78085V4.11835H1.26582C0.831237 4.9846 0.583321 5.9646 0.583321 7.00001C0.583321 8.03543 0.831237 9.01543 1.26582 9.88168L3.40957 8.21918Z" fill="#FBBC05"/>
<path d="M7 3.1354C7.94208 3.1354 8.78791 3.45915 9.45291 4.09498L11.2933 2.25456C10.1821 1.21915 8.72958 0.583313 7 0.583313C4.49166 0.583313 2.32166 2.02123 1.26583 4.11831L3.40958 5.78081C3.91416 4.26415 5.32875 3.1354 7 3.1354Z" fill="#EA4335"/>
</g>
<defs>
<clipPath id="clip0_202_94">
<rect width="14" height="14" fill="white"/>
</clipPath>
</defs>
</svg>
