<svg xmlns="http://www.w3.org/2000/svg" viewBox="0 0 500 500"><g id="freepik--emojis-1--inject-2"><circle cx="263.24" cy="134.3" r="45.23" style="fill:#fff;stroke:#263238;stroke-linecap:round;stroke-linejoin:round"></circle><polyline points="236.91 107.33 250.27 111.51 231.5 115.82" style="fill:none;stroke:#263238;stroke-linecap:round;stroke-linejoin:round;stroke-width:2px"></polyline><polyline points="290.17 107.33 276.13 111.51 294.02 115.82" style="fill:none;stroke:#263238;stroke-linecap:round;stroke-linejoin:round;stroke-width:2px"></polyline><path d="M228.69,125c4.55,19.58,18.3,33.81,34.55,33.81s30-14.23,34.55-33.81l-6-1a173.84,173.84,0,0,0-57.93.12Z" style="fill:#263238;stroke:#263238;stroke-linecap:round;stroke-linejoin:round"></path><path d="M286.79,147.17c-6-4-14.18-6.41-23.27-6.41-9.26,0-17.62,2.56-23.61,6.65,6.3,7.07,14.43,11.36,23.33,11.36S280.46,154.39,286.79,147.17Z" style="fill:#92E3A9;stroke:#263238;stroke-linecap:round;stroke-linejoin:round"></path><circle cx="359.43" cy="157.88" r="46.28" transform="translate(79.14 432.76) rotate(-68.15)" style="fill:#fff;stroke:#263238;stroke-linecap:round;stroke-linejoin:round"></circle><path d="M336.93,126l2.07-1.36A10,10,0,0,1,351.83,126h0" style="fill:none;stroke:#263238;stroke-linecap:round;stroke-linejoin:round;stroke-width:2px"></path><path d="M376.8,133.15l2.42-.56a10.06,10.06,0,0,1,11.54,5.78h0" style="fill:none;stroke:#263238;stroke-linecap:round;stroke-linejoin:round;stroke-width:2px"></path><path d="M388,149.13c0,5.45-3.13,9.87-7,9.87s-7-4.42-7-9.87,3.12-9.87,7-9.87S388,143.68,388,149.13Z" style="fill:#263238;stroke:#263238;stroke-linecap:round;stroke-linejoin:round"></path><path d="M347.26,140.37c-2.34,4.92-7.07,7.57-10.55,5.91s-4.4-7-2-11.92,7.07-7.56,10.55-5.9S349.61,135.45,347.26,140.37Z" style="fill:#263238;stroke:#263238;stroke-linecap:round;stroke-linejoin:round"></path><path d="M361.69,165.15c-1.5,4.69-5.59,7.57-9.14,6.43s-5.2-5.85-3.7-10.54,5.59-7.56,9.13-6.43S363.19,160.47,361.69,165.15Z" style="fill:#263238;stroke:#263238;stroke-linecap:round;stroke-linejoin:round"></path><circle cx="168.48" cy="152.45" r="46.14" style="fill:#fff;stroke:#263238;stroke-linecap:round;stroke-linejoin:round"></circle><path d="M157,177.87c0,1.47-1.95,2.66-4.35,2.66s-4.35-1.19-4.35-2.66,1.95-2.67,4.35-2.67S157,176.4,157,177.87Z" style="fill:#263238;stroke:#263238;stroke-linecap:round;stroke-linejoin:round"></path><path d="M197.75,177.87c0,1.47-1.95,2.66-4.35,2.66s-4.35-1.19-4.35-2.66,1.95-2.67,4.35-2.67S197.75,176.4,197.75,177.87Z" style="fill:#263238;stroke:#263238;stroke-linecap:round;stroke-linejoin:round"></path><path d="M142.14,169.7a5.73,5.73,0,0,0,2.28,2.29c1.53.76,12.58,2.66,18.68,2.66" style="fill:none;stroke:#263238;stroke-linecap:round;stroke-linejoin:round;stroke-width:2px"></path><path d="M204.21,169.7a5.8,5.8,0,0,1-2.29,2.29c-1.52.76-12.58,2.66-18.68,2.66" style="fill:none;stroke:#263238;stroke-linecap:round;stroke-linejoin:round;stroke-width:2px"></path><path d="M163,188a26.24,26.24,0,0,1,10.54-2.42c8.21-.21,11.27,2.63,10,3.08C179.34,190.11,157.1,190.6,163,188Z" style="fill:#263238;stroke:#263238;stroke-linecap:round;stroke-linejoin:round"></path><circle cx="122.62" cy="254.23" r="45.77" transform="translate(-159.13 271.21) rotate(-67.7)" style="fill:#fff;stroke:#263238;stroke-linecap:round;stroke-linejoin:round"></circle><path d="M119.1,272.38l1.77-2.8a13.46,13.46,0,0,1,16.43-5.35h0" style="fill:none;stroke:#263238;stroke-linecap:round;stroke-linejoin:round;stroke-width:2px"></path><ellipse cx="100.36" cy="257.32" rx="5.89" ry="7.07" transform="translate(-96.44 63.52) rotate(-24.13)" style="fill:#263238;stroke:#263238;stroke-linecap:round;stroke-linejoin:round"></ellipse><path d="M145.53,237.09c1.6,3.56.49,7.53-2.48,8.86s-6.68-.48-8.27-4-.49-7.53,2.48-8.86S143.94,233.52,145.53,237.09Z" style="fill:#263238;stroke:#263238;stroke-linecap:round;stroke-linejoin:round"></path><path d="M98.59,242.55s-8.61-1.1-9.2,8.62" style="fill:none;stroke:#263238;stroke-linecap:round;stroke-linejoin:round;stroke-width:2px"></path><path d="M130.11,228.43s4.9-7.16,12.56-1.13" style="fill:none;stroke:#263238;stroke-linecap:round;stroke-linejoin:round;stroke-width:2px"></path><circle cx="384.3" cy="261.79" r="45.74" transform="translate(-71.48 169.65) rotate(-22.83)" style="fill:#fff;stroke:#263238;stroke-linecap:round;stroke-linejoin:round"></circle><path d="M380.48,223.71c-2.51-7.27-10.46-11.13-16.29-9.12-4.08,1.41-6.61,5.51-6.92,10.32-3.22-3.6-7.74-5.26-11.81-3.85-5.84,2-9.71,9.95-7.2,17.23,2.59,7.49,9.18,9.51,15.11,12,4.43,1.82,10,3.24,14.47,5.06,3.13-5.53,7.45-11.47,10.58-17C380.92,233.9,382.44,229.39,380.48,223.71Z" style="fill:#92E3A9;stroke:#263238;stroke-linecap:round;stroke-linejoin:round"></path><path d="M429.12,243.94c3.08-6.09.63-13.54-4.26-16-3.41-1.73-7.59-.81-10.85,2,.31-4.28-1.43-8.18-4.84-9.91-4.89-2.47-12.34,0-15.43,6.06-3.17,6.28-.38,11.73,1.73,17,1.57,3.95,4.13,8.4,5.71,12.35,5.46-1.42,11.91-2.34,17.38-3.76C422.9,250.52,426.72,248.7,429.12,243.94Z" style="fill:#92E3A9;stroke:#263238;stroke-linecap:round;stroke-linejoin:round"></path><path d="M363.57,260.73a98.68,98.68,0,0,1,39.71,8.51s-2.83,22-24.82,17S363.57,260.73,363.57,260.73Z" style="fill:#263238;stroke:#263238;stroke-linecap:round;stroke-linejoin:round"></path><path d="M385.92,283.08c-.55,1.8-4.52,2.19-8.86.86s-7.4-3.87-6.85-5.67,4.52-2.2,8.86-.87S386.47,281.27,385.92,283.08Z" style="fill:#92E3A9;stroke:#263238;stroke-linecap:round;stroke-linejoin:round"></path></g></svg>